<svg width="1440" height="1024" viewBox="0 0 1440 1024" fill="none" xmlns="http://www.w3.org/2000/svg">
<path d="M17 460L20.8167 471.747L33.168 471.747L23.1756 479.007L26.9923 490.753L17 483.493L7.00765 490.753L10.8244 479.007L0.832039 471.747L13.1833 471.747L17 460Z" fill="#4982A6"/>
<path d="M463.67 184.654L464.113 196.997L475.989 200.39L464.387 204.626L464.83 216.969L457.216 207.244L445.614 211.48L452.511 201.233L444.897 191.508L456.773 194.9L463.67 184.654Z" fill="#4982A6"/>
<path d="M1426 658L1429.82 669.747L1442.17 669.747L1432.18 677.007L1435.99 688.753L1426 681.493L1416.01 688.753L1419.82 677.007L1409.83 669.747L1422.18 669.747L1426 658Z" fill="#4982A6"/>
<path d="M935.659 741.667L944.174 750.614L955.314 745.28L949.437 756.143L957.952 765.09L945.804 762.857L939.927 773.72L938.296 761.477L926.149 759.244L937.289 753.91L935.659 741.667Z" fill="#4982A6"/>
<path d="M1273.13 270.152L1268.32 281.529L1277.66 289.617L1265.35 288.561L1260.55 299.938L1257.75 287.908L1245.44 286.851L1256.02 280.473L1253.22 268.442L1262.56 276.53L1273.13 270.152Z" fill="#4982A6"/>
<path d="M202 243L205.817 254.747L218.168 254.747L208.176 262.007L211.992 273.753L202 266.493L192.008 273.753L195.824 262.007L185.832 254.747L198.183 254.747L202 243Z" fill="#4982A6"/>
<path d="M374.882 694.05L374.399 706.392L385.987 710.665L374.1 714.019L373.616 726.361L366.753 716.092L354.866 719.446L362.512 709.746L355.648 699.477L367.237 703.751L374.882 694.05Z" fill="#4982A6"/>
<path d="M493 641L496.817 652.747L509.168 652.747L499.176 660.007L502.992 671.753L493 664.493L483.008 671.753L486.824 660.007L476.832 652.747L489.183 652.747L493 641Z" fill="#4982A6"/>
<path d="M1342.08 431.039L1336.42 442.016L1345.11 450.793L1332.92 448.8L1327.26 459.777L1325.39 447.569L1313.2 445.576L1324.23 440.023L1322.36 427.815L1331.05 436.592L1342.08 431.039Z" fill="#4982A6"/>
<path d="M869 0L872.817 11.7467L885.168 11.7467L875.176 19.0066L878.992 30.7533L869 23.4934L859.008 30.7533L862.824 19.0066L852.832 11.7467L865.183 11.7467L869 0Z" fill="#4982A6"/>
<path d="M1088.68 151.833L1086.78 164.037L1097.8 169.617L1085.6 171.58L1083.7 183.784L1078.07 172.793L1065.87 174.756L1074.58 166L1068.95 155.01L1079.97 160.589L1088.68 151.833Z" fill="#4982A6"/>
<path d="M613 283L616.817 294.747L629.168 294.747L619.176 302.007L622.992 313.753L613 306.493L603.008 313.753L606.824 302.007L596.832 294.747L609.183 294.747L613 283Z" fill="#4982A6"/>
<path d="M977 336L980.817 347.747L993.168 347.747L983.176 355.007L986.992 366.753L977 359.493L967.008 366.753L970.824 355.007L960.832 347.747L973.183 347.747L977 336Z" fill="#4982A6"/>
<path d="M152 641L155.817 652.747L168.168 652.747L158.176 660.007L161.992 671.753L152 664.493L142.008 671.753L145.824 660.007L135.832 652.747L148.183 652.747L152 641Z" fill="#4982A6"/>
<path d="M715.527 571.599L722.3 581.928L734.216 578.678L726.486 588.311L733.259 598.64L721.708 594.265L713.978 603.898L714.57 591.561L703.02 587.186L714.936 583.936L715.527 571.599Z" fill="#4982A6"/>
<path d="M1206 692L1209.82 703.747L1222.17 703.747L1212.18 711.007L1215.99 722.753L1206 715.493L1196.01 722.753L1199.82 711.007L1189.83 703.747L1202.18 703.747L1206 692Z" fill="#4982A6"/>
<path d="M1081 494L1084.82 505.747L1097.17 505.747L1087.18 513.007L1090.99 524.753L1081 517.493L1071.01 524.753L1074.82 513.007L1064.83 505.747L1077.18 505.747L1081 494Z" fill="#4982A6"/>
<path d="M386 426L389.817 437.747L402.168 437.747L392.176 445.007L395.992 456.753L386 449.493L376.008 456.753L379.824 445.007L369.832 437.747L382.183 437.747L386 426Z" fill="#4982A6"/>
<path d="M375.532 429.605L385.773 436.511L395.505 428.905L392.102 440.778L402.342 447.684L389.998 448.116L386.595 459.99L382.369 448.384L370.026 448.816L379.758 441.211L375.532 429.605Z" fill="#4982A6"/>
<path d="M703 990L706.817 1001.75L719.168 1001.75L709.176 1009.01L712.992 1020.75L703 1013.49L693.008 1020.75L696.824 1009.01L686.832 1001.75L699.183 1001.75L703 990Z" fill="#4982A6"/>
<path d="M787.604 431.592L781.456 442.305L789.744 451.462L777.656 448.925L771.509 459.638L770.186 447.357L758.098 444.821L769.368 439.768L768.045 427.488L776.334 436.645L787.604 431.592Z" fill="#4982A6"/>
</svg>
